<?xml version="1.0" standalone="no"?>
<!DOCTYPE svg PUBLIC "-//W3C//DTD SVG 20010904//EN"
 "http://www.w3.org/TR/2001/REC-SVG-20010904/DTD/svg10.dtd">
<svg version="1.0" xmlns="http://www.w3.org/2000/svg"
 width="553.000000pt" height="553.000000pt" viewBox="0 0 553.000000 553.000000"
 preserveAspectRatio="xMidYMid meet">
<metadata>
Created by potrace 1.11, written by Peter Selinger 2001-2013
</metadata>
<g transform="translate(0.000000,553.000000) scale(0.100000,-0.100000)"
fill="#000000" stroke="none">
<path d="M2665 5406 c-121 -28 -234 -83 -533 -258 -114 -67 -294 -172 -400
-235 -106 -62 -342 -197 -525 -299 -183 -103 -371 -211 -418 -241 -272 -167
-354 -276 -388 -513 -14 -94 -22 -1946 -10 -2108 20 -252 83 -372 266 -504
102 -73 198 -131 578 -346 171 -96 420 -241 555 -321 603 -357 673 -395 817
-443 51 -17 90 -22 158 -22 162 1 267 49 830 380 187 111 435 254 550 319 116
65 289 163 385 218 486 275 580 383 605 697 10 124 13 1926 4 2048 -21 276
-92 391 -339 554 -63 42 -281 170 -485 286 -203 115 -482 276 -620 357 -544
324 -631 371 -765 414 -85 28 -189 34 -265 17z m-310 -1756 c245 -448 450
-818 454 -823 4 -4 192 329 417 740 l409 747 3 -771 c1 -424 1 -1121 0 -1548
l-3 -777 -409 746 c-225 411 -413 743 -417 739 -6 -6 -277 -499 -904 -1643
-12 -21 -14 235 -14 1705 0 994 3 1724 8 1715 5 -8 210 -382 456 -830z"/>
<path d="M1980 2766 c0 -753 2 -1367 4 -1365 6 6 737 1341 743 1356 4 9 -621
1165 -723 1338 l-24 40 0 -1369z"/>
</g>
</svg>
